<?xml version="1.0" standalone="no"?><!DOCTYPE svg PUBLIC "-//W3C//DTD SVG 1.1//EN" "http://www.w3.org/Graphics/SVG/1.1/DTD/svg11.dtd"><svg class="icon" width="64px" height="64.00px" viewBox="0 0 1024 1024" version="1.1" xmlns="http://www.w3.org/2000/svg"><path fill="#fff" d="M512 705.728c105.888 0 192-86.112 192-192L704 257.952c0-105.888-86.112-192-192-192s-192 86.112-192 192l0 255.776C320 619.584 406.112 705.728 512 705.728z"  /><path fill="#fff" d="M864 479.776 864 352c0-17.664-14.304-32-32-32s-32 14.336-32 32l0 127.776c0 160.16-129.184 290.464-288 290.464-158.784 0-288-130.304-288-290.464L224 352c0-17.664-14.336-32-32-32s-32 14.336-32 32l0 127.776c0 184.608 140.864 336.48 320 352.832L480 896 288 896c-17.664 0-32 14.304-32 32s14.336 32 32 32l448 0c17.696 0 32-14.304 32-32s-14.304-32-32-32l-192 0 0-63.36C723.136 816.256 864 664.384 864 479.776z"  /></svg>